{"title":"Let.Me.In.2010.DvDRip.R6.H264.Feel-Free","uid":6106910,"size":969049665,"categoryP":"video","categoryS":"movies","magnet":"?xt=urn:btih:380a81a1a73fffa4845af5935a965a7c9234fdf9&amp;dn=Let.Me.In.2010.DvDRip.R6.H264.Feel-Free&amp;tr=udp%3A%2F%2Ftracker.openbittorrent.com%3A80&amp;tr=udp%3A%2F%2Fopen.demonii.com%3A1337&amp;tr=udp%3A%2F%2Ftracker.coppersurfer.tk%3A6969&amp;tr=udp%3A%2F%2Fexodus.desync.com%3A6969","seeders":0,"leechers":1,"uploader":".BONE.","files":9,"time":1295199480,"description":"Genre:Drama | Fantasy | Horror\nLanguage:English\nIMDb:\n &lt;a href=&quot;\nhttp://www.imdb.com/title/tt1228987/&quot; rel=&quot;nofollow&quot; target=&quot;_NEW&quot;&gt;\nhttp://www.imdb.com/title/tt1228987/&lt;/a&gt;\n\nSource:DVDRip KOR/Audio:T0XiC-iNK Thx\n\n\n\nFormat : MPEG-4\nFormat profile : Base Media\nCodec ID : isom\nFile size : 923 MiB\nDuration : 1h 55mn\nOverall bit rate : 1 116 Kbps\n\n\nVideo\nCodec ID : avc1\nCodec ID/Info : Advanced Video Coding\nDuration : 1h 55mn\nBit rate mode : Variable\nBit rate : 950 Kbps\nWidth : 720 pixels\nHeight : 304 pixels\nDisplay aspect ratio : 2.35:1\nFrame rate mode : Constant\nFrame rate : 23.976 fps\nOriginal frame rate : 23.000 fps\nColor space : YUV\nChroma subsampling : 4:2:0\nBit depth : 8 bits\nScan type : Progressive\nBits/(Pixel*Frame) : 0.181\nStream size : 786 MiB (85%)\n\n\nAudio\nID : 1\nFormat : AAC\nFormat/Info : Advanced Audio Codec\nFormat version : Version 4\nFormat profile : LC\nCodec ID : 40\nDuration : 1h 55mn\nBit rate mode : Constant\nBit rate : 160 Kbps\nChannel(s) : 2 channels\nChannel positions : Front: L R\nSampling rate : 48.0 KHz\nStream size : 132 MiB (14%)\nLanguage : English\n\n\n\nPlot:\nA bullied young boy befriends a young female vampire who lives in secrecy with her guardian\n\n &lt;a href=&quot;\nhttp://shareimage.org/images/vzng2rlmsvj2x9h406c.png&quot; rel=&quot;nofollow&quot; target=&quot;_NEW&quot;&gt;\nhttp://shareimage.org/images/vzng2rlmsvj2x9h406c.png&lt;/a&gt;\n &lt;a href=&quot;\nhttp://shareimage.org/images/qwta7heh497xqrgv6sj.png&quot; rel=&quot;nofollow&quot; target=&quot;_NEW&quot;&gt;\nhttp://shareimage.org/images/qwta7heh497xqrgv6sj.png&lt;/a&gt;\n &lt;a href=&quot;\nhttp://shareimage.org/images/2pf6dz71dfcbzf2yzvd7.png&quot; rel=&quot;nofollow&quot; target=&quot;_NEW&quot;&gt;\nhttp://shareimage.org/images/2pf6dz71dfcbzf2yzvd7.png&lt;/a&gt;\n &lt;a href=&quot;\nhttp://shareimage.org/images/wz934anwgo1gpg88zsg.png&quot; rel=&quot;nofollow&quot; target=&quot;_NEW&quot;&gt;\nhttp://shareimage.org/images/wz934anwgo1gpg88zsg.png&lt;/a&gt;\n &lt;a href=&quot;\nhttp://shareimage.org/images/wz934anwgo1gpg88zsg.png&quot; rel=&quot;nofollow&quot; target=&quot;_NEW&quot;&gt;\nhttp://shareimage.org/images/wz934anwgo1gpg88zsg.png&lt;/a&gt;\n &lt;a href=&quot;\nhttp://shareimage.org/images/ns32vw0rc25jj5lbbozh.png&quot; rel=&quot;nofollow&quot; target=&quot;_NEW&quot;&gt;\nhttp://shareimage.org/images/ns32vw0rc25jj5lbbozh.png&lt;/a&gt;","torrent":{"xt":"urn:btih:380a81a1a73fffa4845af5935a965a7c9234fdf9","amp;dn":"Let.Me.In.2010.DvDRip.R6.H264.Feel-Free","amp;tr":["udp%3A%2F%2Ftracker.openbittorrent.com%3A80","udp%3A%2F%2Fopen.demonii.com%3A1337","udp%3A%2F%2Ftracker.coppersurfer.tk%3A6969","udp%3A%2F%2Fexodus.desync.com%3A6969"],"infoHash":"380a81a1a73fffa4845af5935a965a7c9234fdf9","infoHashBuffer":{"type":"Buffer","data":[56,10,129,161,167,63,255,164,132,90,245,147,90,150,90,124,146,52,253,249]},"announce":[],"urlList":[]}}